# xmcd
#
# Track frame offsets: 
#        150
#        13488
#        31841
#        47452
#        64598
#        84190
#        105039
#        118200
#        134703
#        150274
#        167560
#        184570
#
# Disc length: 2761 seconds
#
# Revision: 0
# Processed by: cddbd v1.5.2PL0 Copyright (c) Steve Scherf et al.
# Submitted via: ExactAudioCopy v1.0b2
#
DISCID=880ac70c
DTITLE=Katie Melua - The House
DYEAR=2010
DGENRE=Blues
TTITLE0=I'd Love to Kill You
TTITLE1=The Flood
TTITLE2=A Happy Place
TTITLE3=A Moment of Madness
TTITLE4=Red Balloons
TTITLE5=Tiny Alien
TTITLE6=No Fear of Heights
TTITLE7=The One I Love Is Gone
TTITLE8=Plague of Love
TTITLE9=God on the Drums, Devil on the Bass
TTITLE10=Twisted
TTITLE11=The House
EXTD=
EXTT0=
EXTT1=
EXTT2=
EXTT3=
EXTT4=
EXTT5=
EXTT6=
EXTT7=
EXTT8=
EXTT9=
EXTT10=
EXTT11=
PLAYORDER=
